<svg xmlns="http://www.w3.org/2000/svg" width="1080" viewBox="0 0 810 810" height="1080" version="1.0">
  <defs>
    <clipPath id="a">
      <path d="M79.234 81H729v648H79.234Zm0 0"/>
    </clipPath>
  </defs>
  <path fill="#fff" d="M268.344 405.54a4.03 4.03 0 0 0-1.38 3.034v117.973a4.01 4.01 0 0 0 2.731 3.797l76.504 25.504c.414.136.844.207 1.27.207a3.96 3.96 0 0 0 2.332-.758 4 4 0 0 0 1.668-3.242V419.777a4 4 0 0 0-3.422-3.96l-76.504-11.2a4 4 0 0 0-3.2.922M229 398.45l-53.922-7.864a3.982 3.982 0 0 0-4.566 3.96v99.833a4.005 4.005 0 0 0 2.73 3.793l53.926 17.973c.414.14.84.21 1.254.21a4 4 0 0 0 2.344-.761 4.02 4.02 0 0 0 1.656-3.239V402.398A3.975 3.975 0 0 0 229 398.45m0 0"/>
  <g clip-path="url(#a)">
    <path fill="#fff" d="M725.773 310.633 558.418 86.555s-1.602-2.524-5.297-4c-3.7-1.493-7.297-.442-7.297-.442L282.867 149.5v-23.258a12.01 12.01 0 0 0-9.281-11.699l-21.977-5.074s-1.422-.387-3.422-.278c-2 .11-3.28.649-3.28.649l-39.634 14.043a11.99 11.99 0 0 0-7.988 11.297v36.265l-41.617 10.649a12.1 12.1 0 0 0-7.738 6.222L81.094 320.773a11.98 11.98 0 0 0 .414 11.59 12.06 12.06 0 0 0 10.043 5.82l31.672.66v235.052c0 4.48 2.484 8.578 6.457 10.632l274.61 142.899s2.386 1.328 5.519 1.367c3.128.027 5.543-1.367 5.543-1.367l266.086-138.582a12.01 12.01 0 0 0 6.457-10.633l.468-250.309 26.953 1.864s7.051.8 11.024-5.657c4.387-7.058-.567-13.476-.567-13.476m-327.925 386.39L147.227 566.61V339.34l200.007 4.208h.043l50.582.914v352.562ZM677.23 303.102a11.98 11.98 0 0 0-9.007 3.187 12.07 12.07 0 0 0-3.82 8.758l-.47 255.879-68.683 35.785V384.945a4 4 0 0 0-1.297-2.953 3.98 3.98 0 0 0-3.035-1.035l-66.074 5.492c-2.07.18-3.672 1.918-3.672 3.988v254.829l-99.348 51.742V332.68c0-6.555-5.242-11.88-11.781-12.004L372.961 320l175.246-207 142.695 191.04Zm0 0"/>
  </g>
</svg>
